<mxfile host="65bd71144e">
    <diagram id="ReO1s6_9v_vZGgETcn_S" name="Page-1">
        <mxGraphModel dx="701" dy="461" grid="0" gridSize="10" guides="1" tooltips="1" connect="1" arrows="1" fold="1" page="1" pageScale="1" pageWidth="1169" pageHeight="827" background="#ffffff" math="0" shadow="0">
            <root>
                <mxCell id="0"/>
                <mxCell id="1" parent="0"/>
                <mxCell id="24" value="" style="rounded=0;whiteSpace=wrap;html=1;glass=0;fillColor=#F4F4F4;strokeColor=default;" parent="1" vertex="1">
                    <mxGeometry x="516" y="260" width="250" height="170" as="geometry"/>
                </mxCell>
                <mxCell id="8" style="edgeStyle=none;html=1;entryX=0;entryY=0.5;entryDx=0;entryDy=0;exitX=0.92;exitY=0.764;exitDx=0;exitDy=0;exitPerimeter=0;endArrow=none;endFill=0;" parent="1" source="2" target="3" edge="1">
                    <mxGeometry relative="1" as="geometry"/>
                </mxCell>
                <mxCell id="2" value="Internet" style="ellipse;shape=cloud;whiteSpace=wrap;html=1;fillColor=none;strokeColor=default;" parent="1" vertex="1">
                    <mxGeometry x="123" y="242" width="122" height="180" as="geometry"/>
                </mxCell>
                <mxCell id="7" style="edgeStyle=none;html=1;entryX=0;entryY=0.5;entryDx=0;entryDy=0;endArrow=none;endFill=0;" parent="1" source="3" target="5" edge="1">
                    <mxGeometry relative="1" as="geometry"/>
                </mxCell>
                <mxCell id="3" value="" style="image;html=1;image=img/lib/clip_art/networking/Router_128x128.png" parent="1" vertex="1">
                    <mxGeometry x="270" y="360" width="60" height="40" as="geometry"/>
                </mxCell>
                <mxCell id="5" value="" style="image;html=1;image=img/lib/clip_art/networking/Switch_128x128.png" parent="1" vertex="1">
                    <mxGeometry x="360" y="365" width="60" height="30" as="geometry"/>
                </mxCell>
                <mxCell id="22" style="edgeStyle=none;html=1;entryX=0.5;entryY=0;entryDx=0;entryDy=0;strokeColor=default;endArrow=none;endFill=0;exitX=0.445;exitY=0.991;exitDx=0;exitDy=0;exitPerimeter=0;" parent="1" source="21" target="5" edge="1">
                    <mxGeometry relative="1" as="geometry"/>
                </mxCell>
                <mxCell id="21" value="" style="image;html=1;image=img/lib/clip_art/computers/Laptop_128x128.png" parent="1" vertex="1">
                    <mxGeometry x="345" y="259" width="103" height="81" as="geometry"/>
                </mxCell>
                <mxCell id="25" value="&lt;b&gt;&lt;i&gt;&lt;u&gt;&lt;font color=&quot;#000066&quot; style=&quot;font-size: 11px;&quot;&gt;QEMU / KVM&lt;/font&gt;&lt;/u&gt;&lt;/i&gt;&lt;/b&gt;" style="text;html=1;strokeColor=none;fillColor=none;align=center;verticalAlign=middle;whiteSpace=wrap;rounded=0;glass=0;opacity=40;" parent="1" vertex="1">
                    <mxGeometry x="516" y="260" width="87" height="20" as="geometry"/>
                </mxCell>
                <mxCell id="27" style="edgeStyle=none;html=1;entryX=1;entryY=0.5;entryDx=0;entryDy=0;fontSize=16;fontColor=#000066;endArrow=none;endFill=0;" parent="1" source="26" target="5" edge="1">
                    <mxGeometry relative="1" as="geometry"/>
                </mxCell>
                <mxCell id="26" value="" style="image;html=1;image=img/lib/clip_art/networking/Router_128x128.png;opacity=70;" parent="1" vertex="1">
                    <mxGeometry x="518" y="363.75" width="45" height="32.5" as="geometry"/>
                </mxCell>
                <mxCell id="29" style="edgeStyle=none;html=1;fontSize=16;fontColor=#000066;endArrow=none;endFill=0;exitX=0;exitY=0.5;exitDx=0;exitDy=0;entryX=1;entryY=0.5;entryDx=0;entryDy=0;" parent="1" source="30" edge="1" target="26">
                    <mxGeometry relative="1" as="geometry">
                        <mxPoint x="680" y="380" as="sourcePoint"/>
                        <mxPoint x="590" y="380" as="targetPoint"/>
                    </mxGeometry>
                </mxCell>
                <mxCell id="31" style="edgeStyle=none;html=1;entryX=1;entryY=0.5;entryDx=0;entryDy=0;fontSize=16;fontColor=#000066;endArrow=none;endFill=0;" parent="1" source="28" target="30" edge="1">
                    <mxGeometry relative="1" as="geometry"/>
                </mxCell>
                <mxCell id="28" value="" style="image;html=1;image=img/lib/clip_art/computers/Server_128x128.png;glass=0;fontSize=16;fontColor=#000066;fillColor=#F4F4F4;opacity=80;" parent="1" vertex="1">
                    <mxGeometry x="697" y="365.5" width="50" height="29" as="geometry"/>
                </mxCell>
                <mxCell id="30" value="" style="image;html=1;image=img/lib/clip_art/networking/Switch_128x128.png;opacity=70;" parent="1" vertex="1">
                    <mxGeometry x="620" y="367.5" width="40" height="25" as="geometry"/>
                </mxCell>
                <mxCell id="37" style="edgeStyle=none;rounded=0;html=1;entryX=0.5;entryY=0;entryDx=0;entryDy=0;fontSize=16;fontColor=#000066;endArrow=none;endFill=0;startArrow=none;" parent="1" source="41" target="30" edge="1">
                    <mxGeometry relative="1" as="geometry"/>
                </mxCell>
                <mxCell id="36" value="" style="image;html=1;image=img/lib/clip_art/computers/Monitor_Tower_128x128.png;glass=0;fontSize=16;fontColor=#000066;fillColor=#F4F4F4;opacity=70;" parent="1" vertex="1">
                    <mxGeometry x="607.5" y="295" width="65" height="45" as="geometry"/>
                </mxCell>
                <mxCell id="38" value="&lt;b&gt;&lt;font color=&quot;#330066&quot; style=&quot;font-size: 11px;&quot;&gt;agw&lt;br&gt;&lt;/font&gt;&lt;/b&gt;" style="text;html=1;strokeColor=none;fillColor=none;align=center;verticalAlign=middle;whiteSpace=wrap;rounded=0;glass=0;fontSize=16;fontColor=#000066;opacity=70;" parent="1" vertex="1">
                    <mxGeometry x="520" y="348" width="44" height="19" as="geometry"/>
                </mxCell>
                <mxCell id="39" value="&lt;p style=&quot;line-height: 50%;&quot;&gt;&lt;span style=&quot;font-size: 10px;&quot;&gt;&lt;font color=&quot;#330066&quot; style=&quot;font-size: 10px;&quot;&gt;Internet gateway&lt;/font&gt;&lt;/span&gt;&lt;/p&gt;" style="text;html=1;strokeColor=none;fillColor=none;align=center;verticalAlign=middle;whiteSpace=wrap;rounded=0;glass=0;fontSize=16;fontColor=#000066;opacity=70;" parent="1" vertex="1">
                    <mxGeometry x="274" y="339" width="60" height="22" as="geometry"/>
                </mxCell>
                <mxCell id="44" style="edgeStyle=none;rounded=1;html=1;entryX=0.5;entryY=1;entryDx=0;entryDy=0;fontFamily=Lucida Console;fontSize=9;dashed=1;endArrow=none;endFill=0;" edge="1" parent="1" source="43" target="30">
                    <mxGeometry relative="1" as="geometry"/>
                </mxCell>
                <mxCell id="43" value="&lt;font face=&quot;Lucida Console&quot; color=&quot;#330066&quot; style=&quot;font-size: 9px;&quot;&gt;&lt;b&gt;network 172.16/24&lt;/b&gt;&lt;/font&gt;" style="text;html=1;strokeColor=none;fillColor=none;align=center;verticalAlign=middle;whiteSpace=wrap;rounded=0;glass=0;fontSize=16;fontColor=#000066;opacity=70;rotation=0;" vertex="1" parent="1">
                    <mxGeometry x="602.5" y="407" width="74" height="13.5" as="geometry"/>
                </mxCell>
                <mxCell id="45" style="edgeStyle=none;rounded=1;html=1;fontFamily=Lucida Console;fontSize=9;dashed=1;endArrow=none;endFill=0;entryX=0.75;entryY=1;entryDx=0;entryDy=0;" edge="1" parent="1" source="46" target="5">
                    <mxGeometry relative="1" as="geometry">
                        <mxPoint x="335" y="402.5000000000001" as="targetPoint"/>
                    </mxGeometry>
                </mxCell>
                <mxCell id="46" value="&lt;font face=&quot;Lucida Console&quot; color=&quot;#330066&quot; style=&quot;font-size: 9px;&quot;&gt;&lt;b&gt;network 192.168/24&lt;/b&gt;&lt;/font&gt;" style="text;html=1;strokeColor=none;fillColor=none;align=center;verticalAlign=middle;whiteSpace=wrap;rounded=0;glass=0;fontSize=16;fontColor=#000066;opacity=70;rotation=0;" vertex="1" parent="1">
                    <mxGeometry x="366" y="408.5" width="79" height="13.5" as="geometry"/>
                </mxCell>
                <mxCell id="48" value="" style="edgeStyle=none;rounded=0;html=1;entryX=0.5;entryY=0;entryDx=0;entryDy=0;fontSize=16;fontColor=#000066;endArrow=none;endFill=0;" edge="1" parent="1" source="36" target="41">
                    <mxGeometry relative="1" as="geometry">
                        <mxPoint x="640" y="340" as="sourcePoint"/>
                        <mxPoint x="640" y="367.5" as="targetPoint"/>
                    </mxGeometry>
                </mxCell>
                <mxCell id="41" value="&lt;b&gt;&lt;font color=&quot;#330066&quot; style=&quot;font-size: 11px;&quot;&gt;agnome&lt;/font&gt;&lt;/b&gt;" style="text;html=1;strokeColor=none;fillColor=none;align=center;verticalAlign=middle;whiteSpace=wrap;rounded=0;glass=0;fontSize=16;fontColor=#000066;opacity=70;" vertex="1" parent="1">
                    <mxGeometry x="610" y="337.5" width="60" height="17.5" as="geometry"/>
                </mxCell>
                <mxCell id="50" value="&lt;b&gt;&lt;font color=&quot;#330066&quot; style=&quot;font-size: 11px;&quot;&gt;arsv&lt;/font&gt;&lt;/b&gt;" style="text;html=1;strokeColor=none;fillColor=none;align=center;verticalAlign=middle;whiteSpace=wrap;rounded=0;glass=0;fontSize=16;fontColor=#000066;opacity=70;" vertex="1" parent="1">
                    <mxGeometry x="702" y="347.5" width="44" height="17.5" as="geometry"/>
                </mxCell>
            </root>
        </mxGraphModel>
    </diagram>
</mxfile>